<svg xmlns="http://www.w3.org/2000/svg" xmlns:xlink="http://www.w3.org/1999/xlink" width="2000" zoomAndPan="magnify" viewBox="0 0 1500 1499.999933" height="2000" preserveAspectRatio="xMidYMid meet" version="1.0"><defs><clipPath id="cc2b5280eb"><path d="M 693.351562 713.351562 L 807.160156 713.351562 L 807.160156 1362.734375 L 693.351562 1362.734375 Z M 693.351562 713.351562 " clip-rule="nonzero"/></clipPath><clipPath id="7d28bf1754"><path d="M 0.351562 0.351562 L 114.160156 0.351562 L 114.160156 649.734375 L 0.351562 649.734375 Z M 0.351562 0.351562 " clip-rule="nonzero"/></clipPath><clipPath id="a104e2ed15"><rect x="0" width="115" y="0" height="650"/></clipPath><clipPath id="42002d5b8a"><path d="M 97 364 L 800 364 L 800 827 L 97 827 Z M 97 364 " clip-rule="nonzero"/></clipPath><clipPath id="af32bf25c9"><path d="M 97.769531 489.226562 L 163.898438 364.816406 L 799.261719 702.550781 L 733.132812 826.957031 Z M 97.769531 489.226562 " clip-rule="nonzero"/></clipPath><clipPath id="961401760a"><path d="M 0.679688 0.800781 L 702.441406 0.800781 L 702.441406 463 L 0.679688 463 Z M 0.679688 0.800781 " clip-rule="nonzero"/></clipPath><clipPath id="101f124891"><path d="M 0.769531 125.226562 L 66.898438 0.816406 L 702.261719 338.550781 L 636.132812 462.957031 Z M 0.769531 125.226562 " clip-rule="nonzero"/></clipPath><clipPath id="777c5fe66b"><rect x="0" width="703" y="0" height="463"/></clipPath><clipPath id="2820c58fbc"><path d="M 674 360 L 1416 360 L 1416 843 L 674 843 Z M 674 360 " clip-rule="nonzero"/></clipPath><clipPath id="b9c8dfecfa"><path d="M 1352.835938 360.136719 L 1415.492188 476.40625 L 736.738281 842.183594 L 674.082031 725.917969 Z M 1352.835938 360.136719 " clip-rule="nonzero"/></clipPath><clipPath id="6af0739fe1"><path d="M 0 0 L 741.519531 0 L 741.519531 482.398438 L 0 482.398438 Z M 0 0 " clip-rule="nonzero"/></clipPath><clipPath id="656dc83446"><path d="M 678.835938 0.136719 L 741.492188 116.40625 L 62.738281 482.183594 L 0.0820312 365.917969 Z M 678.835938 0.136719 " clip-rule="nonzero"/></clipPath><clipPath id="e3651b5a0e"><rect x="0" width="742" y="0" height="483"/></clipPath><clipPath id="bca15bf879"><path d="M 65 1021 L 800 1021 L 800 1484 L 65 1484 Z M 65 1021 " clip-rule="nonzero"/></clipPath><clipPath id="2990bc63aa"><path d="M 65.105469 1121.882812 L 118.523438 1021.390625 L 799.265625 1383.242188 L 745.847656 1483.734375 Z M 65.105469 1121.882812 " clip-rule="nonzero"/></clipPath><clipPath id="6964f9f798"><path d="M 0.0390625 0.199219 L 734.441406 0.199219 L 734.441406 462.917969 L 0.0390625 462.917969 Z M 0.0390625 0.199219 " clip-rule="nonzero"/></clipPath><clipPath id="7d0ada68f5"><path d="M 0.105469 100.882812 L 53.523438 0.390625 L 734.265625 362.242188 L 680.847656 462.734375 Z M 0.105469 100.882812 " clip-rule="nonzero"/></clipPath><clipPath id="7d578c67b5"><rect x="0" width="735" y="0" height="463"/></clipPath><clipPath id="3397773ece"><path d="M 693 1011 L 1449 1011 L 1449 1484 L 693 1484 Z M 693 1011 " clip-rule="nonzero"/></clipPath><clipPath id="d3e808aad0"><path d="M 1392.035156 1011.480469 L 1448.804688 1120.75 L 750.117188 1483.742188 L 693.347656 1374.472656 Z M 1392.035156 1011.480469 " clip-rule="nonzero"/></clipPath><clipPath id="ac05c2537c"><path d="M 0.121094 0.359375 L 755.878906 0.359375 L 755.878906 472.917969 L 0.121094 472.917969 Z M 0.121094 0.359375 " clip-rule="nonzero"/></clipPath><clipPath id="88b61f813e"><path d="M 699.035156 0.480469 L 755.804688 109.75 L 57.117188 472.742188 L 0.347656 363.472656 Z M 699.035156 0.480469 " clip-rule="nonzero"/></clipPath><clipPath id="f73c4a2fe1"><rect x="0" width="756" y="0" height="473"/></clipPath><clipPath id="524480bcff"><path d="M 1321.597656 364.824219 L 1447.445312 364.824219 L 1447.445312 1124.859375 L 1321.597656 1124.859375 Z M 1321.597656 364.824219 " clip-rule="nonzero"/></clipPath><clipPath id="5ec9021046"><path d="M 0.597656 0.824219 L 126.445312 0.824219 L 126.445312 760.859375 L 0.597656 760.859375 Z M 0.597656 0.824219 " clip-rule="nonzero"/></clipPath><clipPath id="229132753a"><rect x="0" width="127" y="0" height="761"/></clipPath><clipPath id="7f45d14882"><path d="M 65.105469 379.476562 L 178.914062 379.476562 L 178.914062 1120.523438 L 65.105469 1120.523438 Z M 65.105469 379.476562 " clip-rule="nonzero"/></clipPath><clipPath id="8e0113854c"><path d="M 0.105469 0.476562 L 113.914062 0.476562 L 113.914062 741.523438 L 0.105469 741.523438 Z M 0.105469 0.476562 " clip-rule="nonzero"/></clipPath><clipPath id="1cb27ef223"><rect x="0" width="114" y="0" height="742"/></clipPath><clipPath id="5f35b8bcf6"><path d="M 726 0 L 1448 0 L 1448 456 L 726 456 Z M 726 0 " clip-rule="nonzero"/></clipPath><clipPath id="3fb94d4321"><path d="M 726.867188 100.488281 L 780.285156 -0.00390625 L 1447.445312 354.628906 L 1394.027344 455.125 Z M 726.867188 100.488281 " clip-rule="nonzero"/></clipPath><clipPath id="1cf01bb9a0"><path d="M 0.71875 0 L 721.679688 0 L 721.679688 455.28125 L 0.71875 455.28125 Z M 0.71875 0 " clip-rule="nonzero"/></clipPath><clipPath id="3f99bdb30b"><path d="M 0.867188 100.488281 L 54.285156 -0.00390625 L 721.445312 354.628906 L 668.027344 455.125 Z M 0.867188 100.488281 " clip-rule="nonzero"/></clipPath><clipPath id="ce4baffdaa"><rect x="0" width="722" y="0" height="456"/></clipPath><clipPath id="8512076ebb"><path d="M 65 0 L 843 0 L 843 473 L 65 473 Z M 65 0 " clip-rule="nonzero"/></clipPath><clipPath id="a947f24bcc"><path d="M 794.289062 0 L 842.859375 93.488281 L 113.671875 472.324219 L 65.101562 378.835938 Z M 794.289062 0 " clip-rule="nonzero"/></clipPath><clipPath id="61382c15fd"><path d="M 0.0390625 0 L 777.878906 0 L 777.878906 472.558594 L 0.0390625 472.558594 Z M 0.0390625 0 " clip-rule="nonzero"/></clipPath><clipPath id="28282135e9"><path d="M 729.289062 0 L 777.859375 93.488281 L 48.671875 472.324219 L 0.101562 378.835938 Z M 729.289062 0 " clip-rule="nonzero"/></clipPath><clipPath id="3518fc79fa"><rect x="0" width="778" y="0" height="473"/></clipPath></defs><g clip-path="url(#cc2b5280eb)"><g transform="matrix(1, 0, 0, 1, 693, 713)"><g clip-path="url(#a104e2ed15)"><g clip-path="url(#7d28bf1754)"><path fill="#adffd9" d="M 0.351562 0.351562 L 114.160156 0.351562 L 114.160156 649.867188 L 0.351562 649.867188 Z M 0.351562 0.351562 " fill-opacity="1" fill-rule="nonzero"/></g></g></g></g><g clip-path="url(#42002d5b8a)"><g clip-path="url(#af32bf25c9)"><g transform="matrix(1, 0, 0, 1, 97, 364)"><g clip-path="url(#777c5fe66b)"><g clip-path="url(#961401760a)"><g clip-path="url(#101f124891)"><path fill="#adffd9" d="M 0.769531 125.226562 L 66.898438 0.816406 L 702.070312 338.445312 L 635.9375 462.855469 Z M 0.769531 125.226562 " fill-opacity="1" fill-rule="nonzero"/></g></g></g></g></g></g><g clip-path="url(#2820c58fbc)"><g clip-path="url(#b9c8dfecfa)"><g transform="matrix(1, 0, 0, 1, 674, 360)"><g clip-path="url(#e3651b5a0e)"><g clip-path="url(#6af0739fe1)"><g clip-path="url(#656dc83446)"><path fill="#adffd9" d="M 678.835938 0.136719 L 741.492188 116.40625 L 62.957031 482.066406 L 0.300781 365.796875 Z M 678.835938 0.136719 " fill-opacity="1" fill-rule="nonzero"/></g></g></g></g></g></g><g clip-path="url(#bca15bf879)"><g clip-path="url(#2990bc63aa)"><g transform="matrix(1, 0, 0, 1, 65, 1021)"><g clip-path="url(#7d578c67b5)"><g clip-path="url(#6964f9f798)"><g clip-path="url(#7d0ada68f5)"><path fill="#adffd9" d="M 0.105469 100.882812 L 53.523438 0.390625 L 734.214844 362.214844 L 680.796875 462.710938 Z M 0.105469 100.882812 " fill-opacity="1" fill-rule="nonzero"/></g></g></g></g></g></g><g clip-path="url(#3397773ece)"><g clip-path="url(#d3e808aad0)"><g transform="matrix(1, 0, 0, 1, 693, 1011)"><g clip-path="url(#f73c4a2fe1)"><g clip-path="url(#ac05c2537c)"><g clip-path="url(#88b61f813e)"><path fill="#adffd9" d="M 699.035156 0.480469 L 755.804688 109.75 L 57.074219 472.765625 L 0.304688 363.496094 Z M 699.035156 0.480469 " fill-opacity="1" fill-rule="nonzero"/></g></g></g></g></g></g><g clip-path="url(#524480bcff)"><g transform="matrix(1, 0, 0, 1, 1321, 364)"><g clip-path="url(#229132753a)"><g clip-path="url(#5ec9021046)"><path fill="#adffd9" d="M 0.597656 0.824219 L 126.445312 0.824219 L 126.445312 760.816406 L 0.597656 760.816406 Z M 0.597656 0.824219 " fill-opacity="1" fill-rule="nonzero"/></g></g></g></g><g clip-path="url(#7f45d14882)"><g transform="matrix(1, 0, 0, 1, 65, 379)"><g clip-path="url(#1cb27ef223)"><g clip-path="url(#8e0113854c)"><path fill="#adffd9" d="M 0.105469 0.476562 L 113.914062 0.476562 L 113.914062 741.570312 L 0.105469 741.570312 Z M 0.105469 0.476562 " fill-opacity="1" fill-rule="nonzero"/></g></g></g></g><g clip-path="url(#5f35b8bcf6)"><g clip-path="url(#3fb94d4321)"><g transform="matrix(1, 0, 0, 1, 726, 0.000000000000112861)"><g clip-path="url(#ce4baffdaa)"><g clip-path="url(#1cf01bb9a0)"><g clip-path="url(#3f99bdb30b)"><path fill="#adffd9" d="M 0.867188 100.488281 L 54.285156 -0.00390625 L 721.628906 354.726562 L 668.210938 455.222656 Z M 0.867188 100.488281 " fill-opacity="1" fill-rule="nonzero"/></g></g></g></g></g></g><g clip-path="url(#8512076ebb)"><g clip-path="url(#a947f24bcc)"><g transform="matrix(1, 0, 0, 1, 65, 0.000000000000112861)"><g clip-path="url(#3518fc79fa)"><g clip-path="url(#61382c15fd)"><g clip-path="url(#28282135e9)"><path fill="#adffd9" d="M 729.289062 0 L 777.859375 93.488281 L 48.578125 472.375 L 0.0078125 378.886719 Z M 729.289062 0 " fill-opacity="1" fill-rule="nonzero"/></g></g></g></g></g></g></svg>